<?xml version="1.0" encoding="utf-8"?>
<!-- Generator: Adobe Illustrator 15.0.0, SVG Export Plug-In  -->
<!DOCTYPE svg PUBLIC "-//W3C//DTD SVG 1.1//EN" "http://www.w3.org/Graphics/SVG/1.1/DTD/svg11.dtd" [
	<!ENTITY ns_flows "http://ns.adobe.com/Flows/1.0/">
]>
<svg version="1.1"
	 xmlns="http://www.w3.org/2000/svg" xmlns:xlink="http://www.w3.org/1999/xlink" xmlns:a="http://ns.adobe.com/AdobeSVGViewerExtensions/3.0/"
	 x="0px" y="0px" width="151px" height="41px" viewBox="-0.5 20.703 151 41" enable-background="new -0.5 20.703 151 41"
	 xml:space="preserve">
<defs>
</defs>
<g>
	<defs>
		<rect id="SVGID_1_" x="108.653" y="20.722" width="41.347" height="40.962"/>
	</defs>
	<clipPath id="SVGID_2_">
		<use xlink:href="#SVGID_1_"  overflow="visible"/>
	</clipPath>
	<polygon clip-path="url(#SVGID_2_)" fill-rule="evenodd" clip-rule="evenodd" fill="#340E70" points="112.019,0 158.654,7.71 
		155.769,24.095 109.615,16.866 	"/>
	<polygon clip-path="url(#SVGID_2_)" fill-rule="evenodd" clip-rule="evenodd" fill="#340E70" points="109.615,16.385 
		155.769,23.613 155.769,24.577 109.135,17.349 	"/>
	<polygon clip-path="url(#SVGID_2_)" fill-rule="evenodd" clip-rule="evenodd" fill="#331372" points="109.615,16.866 
		155.769,24.095 155.769,25.059 109.135,17.83 	"/>
	<polygon clip-path="url(#SVGID_2_)" fill-rule="evenodd" clip-rule="evenodd" fill="#321874" points="109.135,17.349 
		155.769,24.577 155.769,25.541 109.135,18.312 	"/>
	<polygon clip-path="url(#SVGID_2_)" fill-rule="evenodd" clip-rule="evenodd" fill="#311C76" points="109.135,17.83 
		155.769,25.059 155.769,26.023 109.135,18.794 	"/>
	<polygon clip-path="url(#SVGID_2_)" fill-rule="evenodd" clip-rule="evenodd" fill="#301F77" points="109.135,18.312 
		155.769,25.541 155.288,26.505 109.135,19.276 	"/>
	<polygon clip-path="url(#SVGID_2_)" fill-rule="evenodd" clip-rule="evenodd" fill="#2E237A" points="109.135,18.794 
		155.769,26.023 155.288,26.986 109.135,19.758 	"/>
	<polygon clip-path="url(#SVGID_2_)" fill-rule="evenodd" clip-rule="evenodd" fill="#2D267B" points="109.135,19.276 
		155.288,26.505 155.288,27.468 109.135,20.24 	"/>
	<polygon clip-path="url(#SVGID_2_)" fill-rule="evenodd" clip-rule="evenodd" fill="#2A297D" points="109.135,19.758 
		155.288,26.986 155.288,27.951 108.653,20.722 	"/>
	<polygon clip-path="url(#SVGID_2_)" fill-rule="evenodd" clip-rule="evenodd" fill="#282B7F" points="109.135,20.24 
		155.288,27.468 155.288,28.432 108.653,21.204 	"/>
	<polygon clip-path="url(#SVGID_2_)" fill-rule="evenodd" clip-rule="evenodd" fill="#262E81" points="108.653,20.722 
		155.288,27.951 155.288,28.914 108.653,21.686 	"/>
	<polygon clip-path="url(#SVGID_2_)" fill-rule="evenodd" clip-rule="evenodd" fill="#243082" points="108.653,21.204 
		155.288,28.432 155.288,29.396 108.653,22.167 	"/>
	<polygon clip-path="url(#SVGID_2_)" fill-rule="evenodd" clip-rule="evenodd" fill="#203384" points="108.653,21.686 
		155.288,28.914 154.808,29.878 108.653,22.649 	"/>
	<polygon clip-path="url(#SVGID_2_)" fill-rule="evenodd" clip-rule="evenodd" fill="#1D3586" points="108.653,22.167 
		155.288,29.396 154.808,30.36 108.653,23.131 	"/>
	<polygon clip-path="url(#SVGID_2_)" fill-rule="evenodd" clip-rule="evenodd" fill="#183888" points="108.653,22.649 
		154.808,29.878 154.808,30.842 108.173,23.613 	"/>
	<polygon clip-path="url(#SVGID_2_)" fill-rule="evenodd" clip-rule="evenodd" fill="#133A89" points="108.653,23.131 
		154.808,30.36 154.808,31.324 108.173,24.095 	"/>
	<polygon clip-path="url(#SVGID_2_)" fill-rule="evenodd" clip-rule="evenodd" fill="#033C8B" points="108.173,23.613 
		154.808,30.842 154.808,31.806 108.173,24.577 	"/>
	<polygon clip-path="url(#SVGID_2_)" fill-rule="evenodd" clip-rule="evenodd" fill="#003E8D" points="108.173,24.095 
		154.808,31.324 154.808,32.288 108.173,25.059 	"/>
	<polygon clip-path="url(#SVGID_2_)" fill-rule="evenodd" clip-rule="evenodd" fill="#00408E" points="108.173,24.577 
		154.808,31.806 154.327,32.77 108.173,25.541 	"/>
	<polygon clip-path="url(#SVGID_2_)" fill-rule="evenodd" clip-rule="evenodd" fill="#004290" points="108.173,25.059 
		154.808,32.288 154.327,33.251 108.173,26.023 	"/>
	<polygon clip-path="url(#SVGID_2_)" fill-rule="evenodd" clip-rule="evenodd" fill="#004492" points="108.173,25.541 
		154.327,32.77 154.327,33.733 107.691,26.505 	"/>
	<polygon clip-path="url(#SVGID_2_)" fill-rule="evenodd" clip-rule="evenodd" fill="#004693" points="108.173,26.023 
		154.327,33.251 154.327,34.215 107.691,26.986 	"/>
	<polygon clip-path="url(#SVGID_2_)" fill-rule="evenodd" clip-rule="evenodd" fill="#004895" points="107.691,26.505 
		154.327,33.733 154.327,34.697 107.691,27.468 	"/>
	<polygon clip-path="url(#SVGID_2_)" fill-rule="evenodd" clip-rule="evenodd" fill="#004A97" points="107.691,26.986 
		154.327,34.215 154.327,35.179 107.691,27.951 	"/>
	<polygon clip-path="url(#SVGID_2_)" fill-rule="evenodd" clip-rule="evenodd" fill="#004C98" points="107.691,27.468 
		154.327,34.697 153.846,35.661 107.691,28.432 	"/>
	<polygon clip-path="url(#SVGID_2_)" fill-rule="evenodd" clip-rule="evenodd" fill="#004E9A" points="107.691,27.951 
		154.327,35.179 153.846,36.143 107.691,28.914 	"/>
	<polygon clip-path="url(#SVGID_2_)" fill-rule="evenodd" clip-rule="evenodd" fill="#004F9C" points="107.691,28.432 
		153.846,35.661 153.846,36.625 107.691,29.396 	"/>
	<polygon clip-path="url(#SVGID_2_)" fill-rule="evenodd" clip-rule="evenodd" fill="#00519E" points="107.691,28.914 
		153.846,36.143 153.846,37.106 107.211,29.878 	"/>
	<polygon clip-path="url(#SVGID_2_)" fill-rule="evenodd" clip-rule="evenodd" fill="#00539F" points="107.691,29.396 
		153.846,36.625 153.846,37.588 107.211,30.36 	"/>
	<polygon clip-path="url(#SVGID_2_)" fill-rule="evenodd" clip-rule="evenodd" fill="#0055A1" points="107.211,29.878 
		153.846,37.106 153.846,38.07 107.211,30.842 	"/>
	<polygon clip-path="url(#SVGID_2_)" fill-rule="evenodd" clip-rule="evenodd" fill="#0057A3" points="107.211,30.36 
		153.846,37.588 153.846,38.552 107.211,31.324 	"/>
	<polygon clip-path="url(#SVGID_2_)" fill-rule="evenodd" clip-rule="evenodd" fill="#0059A5" points="107.211,30.842 
		153.846,38.07 153.365,39.034 107.211,31.806 	"/>
	<polygon clip-path="url(#SVGID_2_)" fill-rule="evenodd" clip-rule="evenodd" fill="#005AA7" points="107.211,31.324 
		153.846,38.552 153.365,39.516 107.211,32.288 	"/>
	<polygon clip-path="url(#SVGID_2_)" fill-rule="evenodd" clip-rule="evenodd" fill="#005CA9" points="107.211,31.806 
		153.365,39.034 153.365,39.998 106.73,32.77 	"/>
	<polygon clip-path="url(#SVGID_2_)" fill-rule="evenodd" clip-rule="evenodd" fill="#005EAA" points="107.211,32.288 
		153.365,39.516 153.365,40.479 106.73,33.251 	"/>
	<polygon clip-path="url(#SVGID_2_)" fill-rule="evenodd" clip-rule="evenodd" fill="#0060AD" points="106.73,32.77 153.365,39.998 
		153.365,40.962 106.73,33.733 	"/>
	<polygon clip-path="url(#SVGID_2_)" fill-rule="evenodd" clip-rule="evenodd" fill="#0061AE" points="106.73,33.251 
		153.365,40.479 153.365,41.443 106.73,34.215 	"/>
	<polygon clip-path="url(#SVGID_2_)" fill-rule="evenodd" clip-rule="evenodd" fill="#0063B1" points="106.73,33.733 
		153.365,40.962 152.885,41.926 106.73,34.697 	"/>
	<polygon clip-path="url(#SVGID_2_)" fill-rule="evenodd" clip-rule="evenodd" fill="#0065B2" points="106.73,34.215 
		153.365,41.443 152.885,42.408 106.73,35.179 	"/>
	<polygon clip-path="url(#SVGID_2_)" fill-rule="evenodd" clip-rule="evenodd" fill="#0067B4" points="106.73,34.697 
		152.885,41.926 152.885,42.89 106.25,35.661 	"/>
	<polygon clip-path="url(#SVGID_2_)" fill-rule="evenodd" clip-rule="evenodd" fill="#0068B6" points="106.73,35.179 
		152.885,42.408 152.885,43.372 106.25,36.143 	"/>
	<polygon clip-path="url(#SVGID_2_)" fill-rule="evenodd" clip-rule="evenodd" fill="#006AB8" points="106.25,35.661 152.885,42.89 
		152.885,43.854 106.25,36.625 	"/>
	<polygon clip-path="url(#SVGID_2_)" fill-rule="evenodd" clip-rule="evenodd" fill="#006CBB" points="106.25,36.143 
		152.885,43.372 152.885,44.335 106.25,37.106 	"/>
	<polygon clip-path="url(#SVGID_2_)" fill-rule="evenodd" clip-rule="evenodd" fill="#006DBC" points="106.25,36.625 
		152.885,43.854 152.403,44.817 106.25,37.588 	"/>
	<polygon clip-path="url(#SVGID_2_)" fill-rule="evenodd" clip-rule="evenodd" fill="#006FBF" points="106.25,37.106 
		152.885,44.335 152.403,45.299 106.25,38.07 	"/>
	<polygon clip-path="url(#SVGID_2_)" fill-rule="evenodd" clip-rule="evenodd" fill="#0071C1" points="106.25,37.588 
		152.403,44.817 152.403,45.781 106.25,38.552 	"/>
	<polygon clip-path="url(#SVGID_2_)" fill-rule="evenodd" clip-rule="evenodd" fill="#0073C3" points="106.25,38.07 152.403,45.299 
		152.403,46.263 105.77,39.034 	"/>
	<polygon clip-path="url(#SVGID_2_)" fill-rule="evenodd" clip-rule="evenodd" fill="#0074C5" points="106.25,38.552 
		152.403,45.781 152.403,46.745 105.77,39.516 	"/>
	<polygon clip-path="url(#SVGID_2_)" fill-rule="evenodd" clip-rule="evenodd" fill="#0076C8" points="105.77,39.034 
		152.403,46.263 152.403,47.227 105.77,39.998 	"/>
	<polygon clip-path="url(#SVGID_2_)" fill-rule="evenodd" clip-rule="evenodd" fill="#0078CA" points="105.77,39.516 
		152.403,46.745 151.923,47.708 105.77,40.479 	"/>
	<polygon clip-path="url(#SVGID_2_)" fill-rule="evenodd" clip-rule="evenodd" fill="#007ACC" points="105.77,39.998 
		152.403,47.227 151.923,48.19 105.77,40.962 	"/>
	<polygon clip-path="url(#SVGID_2_)" fill-rule="evenodd" clip-rule="evenodd" fill="#007CCF" points="105.77,40.479 
		151.923,47.708 151.923,48.672 105.77,41.443 	"/>
	<polygon clip-path="url(#SVGID_2_)" fill-rule="evenodd" clip-rule="evenodd" fill="#007ED1" points="105.77,40.962 151.923,48.19 
		151.923,49.154 105.288,41.926 	"/>
	<polygon clip-path="url(#SVGID_2_)" fill-rule="evenodd" clip-rule="evenodd" fill="#007FD4" points="105.77,41.443 
		151.923,48.672 151.923,49.636 105.288,42.408 	"/>
	<polygon clip-path="url(#SVGID_2_)" fill-rule="evenodd" clip-rule="evenodd" fill="#0081D6" points="105.288,41.926 
		151.923,49.154 151.923,50.118 105.288,42.89 	"/>
	<polygon clip-path="url(#SVGID_2_)" fill-rule="evenodd" clip-rule="evenodd" fill="#0083D9" points="105.288,42.408 
		151.923,49.636 151.923,50.6 105.288,43.372 	"/>
	<polygon clip-path="url(#SVGID_2_)" fill-rule="evenodd" clip-rule="evenodd" fill="#0085DC" points="105.288,42.89 
		151.923,50.118 151.441,51.082 105.288,43.854 	"/>
	<polygon clip-path="url(#SVGID_2_)" fill-rule="evenodd" clip-rule="evenodd" fill="#0087DE" points="105.288,43.372 151.923,50.6 
		151.441,51.563 105.288,44.335 	"/>
	<polygon clip-path="url(#SVGID_2_)" fill-rule="evenodd" clip-rule="evenodd" fill="#0089E1" points="105.288,43.854 
		151.441,51.082 151.441,52.045 104.808,44.817 	"/>
	<polygon clip-path="url(#SVGID_2_)" fill-rule="evenodd" clip-rule="evenodd" fill="#0089E1" points="105.288,44.335 
		151.441,51.563 149.038,67.948 102.403,60.72 	"/>
</g>
<polygon fill-rule="evenodd" clip-rule="evenodd" fill="#00A743" points="108.653,54.455 108.653,61.684 150,61.684 150,53.973 "/>
<path fill-rule="evenodd" clip-rule="evenodd" fill="#FFFFFF" d="M108.653,51.082v3.373L150,53.973v-2.891l0,0h-0.962
	c0-3.374-0.48-12.53-0.48-13.494H150l0,0l0,0v-0.481l0,0l0,0h-1.442v-0.964H150l0,0l0,0l0,0l0,0l0,0l-1.442-0.482V23.613h-3.365l0,0
	l-0.481,2.41v-2.41h-0.48v5.301l0.48,4.819l-0.48,7.229l0.48,10.12h-2.884c-2.404-2.41-6.731-4.337-9.616-5.301
	c-6.73-2.409-11.538-0.482-18.75,5.301h-1.442l-0.48-0.482v0.482h-0.48l0,0h-0.962l0,0H108.653z"/>
<rect y="20.722" fill-rule="evenodd" clip-rule="evenodd" fill="#0074C5" width="106.73" height="40.962"/>
<path fill-rule="evenodd" clip-rule="evenodd" fill="#FFFFFF" d="M27.404,36.625c0,0.963-0.481,1.445-0.961,1.927
	S25,39.516,24.039,39.516c-1.442,0-2.404-0.482-3.365-0.964l0.961-0.964c0.961,0.482,1.442,0.964,2.404,0.964
	c0.48,0,0.961-0.482,1.442-0.482c0-0.482,0.481-0.964,0.481-1.445c0-0.482-0.481-0.964-0.962-1.446
	c-0.481-0.481-0.961-0.964-1.923-1.446c-1.442-0.963-1.923-1.927-1.923-2.891s0.481-1.446,0.961-1.928
	c0.962-0.482,1.442-0.482,2.404-0.482c0.962,0,1.923,0,2.885,0.964l-0.961,0.482c-0.48-0.482-1.442-0.482-1.923-0.482
	c-0.48,0-0.961,0-0.961,0.482c-0.48,0-0.48,0.482-0.48,0.964s0,0.964,0.961,1.446c0,0,0.48,0.482,1.442,1.445
	c0.961,0.482,1.442,0.964,1.442,1.446C27.404,35.661,27.404,36.143,27.404,36.625L27.404,36.625z M36.539,39.516h-5.77V28.432h5.289
	v0.964h-3.846v3.855h3.846v0.964h-3.846v3.855h4.327V39.516z M48.077,39.516h-0.962l-6.731-8.674v8.674h-0.961V28.432h0.961
	l6.731,8.674v-8.674h0.962V39.516z M60.096,39.516h-1.923l-0.961-3.374h-4.327l-0.962,3.374h-1.442l4.327-11.084h0.961
	L60.096,39.516z M56.731,35.179l-1.442-4.819l-1.923,4.819H56.731z M71.634,33.733c0,2.41-0.961,3.855-2.884,4.819
	c-0.961,0.482-1.923,0.964-3.847,0.964H62.5V28.432h2.403c1.443,0,2.404,0,3.366,0c0.48,0.482,0.961,0.482,1.441,0.964
	C71.154,30.36,71.634,31.806,71.634,33.733L71.634,33.733z M70.192,33.733c0-1.927-0.962-3.373-2.404-3.855
	c-0.481-0.482-1.442-0.482-2.885-0.482h-0.961v8.674h0.961c0.962,0,1.923,0,2.404,0c0.481,0,0.962-0.482,1.443-0.482
	C69.711,36.625,70.192,35.179,70.192,33.733L70.192,33.733z M85.096,33.733c0,1.446-0.48,2.892-1.441,4.337
	c-0.962,0.964-2.404,1.446-3.847,1.446c-1.923,0-2.885-0.482-3.847-1.446c-1.441-1.445-1.922-2.892-1.922-4.337
	c0-1.445,0.961-2.891,1.922-3.855c0.962-0.964,2.405-1.446,3.847-1.446c1.442,0,2.885,0.482,3.847,1.446
	C84.615,30.842,85.096,32.288,85.096,33.733L85.096,33.733z M83.654,33.733c0-0.963-0.481-2.409-0.962-3.373
	c-0.962-0.482-1.923-0.964-2.885-0.964c-1.441,0-2.404,0.482-2.885,1.446s-0.962,1.928-0.962,2.891c0,1.446,0.481,2.41,0.962,3.374
	s1.443,1.446,2.885,1.446c0.962,0,1.923-0.482,2.885-1.446C83.173,36.143,83.654,35.179,83.654,33.733L83.654,33.733z
	 M26.923,44.335h-4.327v3.374h3.846v1.445h-3.846v4.819h-1.442V42.89h5.769V44.335z M36.058,53.973h-6.25V42.89h5.289v1.445H31.25
	v3.374h3.846v0.964H31.25v4.337h4.808V53.973z M48.077,48.19c0,2.409-0.962,4.337-2.884,5.301c-0.962,0.482-2.405,0.482-3.847,0.482
	h-2.885V42.89h2.885c0.961,0,2.404,0.482,2.885,0.482c0.48,0,1.442,0.482,1.923,0.963C47.115,45.299,48.077,46.263,48.077,48.19
	L48.077,48.19z M46.154,48.19c0-1.927-0.48-3.374-2.404-3.855c-0.48,0-1.442,0-2.404,0h-1.442v8.674h1.442
	c0.961,0,1.442,0,1.923-0.482c0.48,0,0.961,0,1.442-0.482C45.673,51.082,46.154,50.118,46.154,48.19L46.154,48.19z M57.211,53.973
	h-6.25V42.89h5.289v1.445h-3.847v3.374h3.847v0.964h-3.847v4.337h4.808V53.973z M66.827,53.491l-1.442,0.482l-2.404-4.337h-1.923
	v4.337h-1.442V42.89h2.404c1.443,0,2.404,0.482,2.884,0.964c0.481,0.481,0.962,0.963,0.962,1.927c0,1.446-0.481,2.41-1.923,3.373
	L66.827,53.491z M64.423,46.263c0-0.964-0.48-1.446-0.961-1.928c0,0-0.481,0-1.443,0h-0.962v3.855h0.962
	c0.481,0,1.443,0,1.923-0.482C63.942,47.227,64.423,46.745,64.423,46.263L64.423,46.263z M77.403,53.973h-1.442L75,50.6h-4.327
	l-1.442,3.374h-1.442l4.808-11.083h0.961L77.403,53.973z M74.52,49.636l-1.923-4.819l-1.923,4.819H74.52z M86.058,53.973h-6.25
	V42.89h1.442v10.12h4.808V53.973z"/>
<rect id="_x3C_Slice_x3E__1_" y="20.703" fill="none" width="150" height="41"/>
</svg>
